<?xml version="1.0" encoding="utf-8"?>
<!-- Generator: Adobe Illustrator 21.1.0, SVG Export Plug-In . SVG Version: 6.00 Build 0)  -->
<svg version="1.1" id="Layer_1" xmlns="http://www.w3.org/2000/svg" xmlns:xlink="http://www.w3.org/1999/xlink" x="0px" y="0px"
	 viewBox="0 0 284.1 158.9" style="enable-background:new 0 0 284.1 158.9;" xml:space="preserve">
<style type="text/css">
	.st0{fill:#FFFFFF;}
	.st1{fill:url(#SVGID_1_);}
	.st2{fill:url(#SVGID_2_);}
</style>
<path class="st0" d="M13.5,81.6h33.1V51.6h11.6v76.8H46.7V92.5H13.5v35.9H1.9V51.6h11.6V81.6z"/>
<path class="st0" d="M72.8,89.7c0-10.8,4-20.1,11.9-27.9c7.9-7.8,17.4-11.6,28.5-11.6c10.9,0,20.3,3.9,28.2,11.7
	c7.9,7.8,11.8,17.2,11.8,28.2c0,11-3.9,20.4-11.8,28.1c-7.9,7.7-17.5,11.6-28.7,11.6c-9.9,0-18.8-3.4-26.7-10.3
	C77.2,111.9,72.8,102,72.8,89.7z M84.5,89.8c0,8.5,2.9,15.5,8.6,21c5.7,5.5,12.2,8.2,19.7,8.2c8.1,0,14.9-2.8,20.4-8.4
	c5.5-5.6,8.3-12.5,8.3-20.6c0-8.2-2.7-15.1-8.2-20.6c-5.4-5.6-12.2-8.4-20.2-8.4c-8,0-14.7,2.8-20.3,8.4
	C87.3,74.9,84.5,81.7,84.5,89.8z"/>
<path class="st0" d="M167.9,128.4V51.6h11.5c5.1,0,9.2,0.4,12.3,1.2c3.1,0.8,5.7,2.1,7.8,4c2.2,2,3.9,4.4,5.1,7.3
	c1.3,3,1.9,5.9,1.9,9c0,5.5-2.1,10.2-6.3,14c4.1,1.4,7.3,3.8,9.7,7.3c2.4,3.5,3.6,7.5,3.6,12c0,6-2.1,11.1-6.4,15.2
	c-2.6,2.6-5.4,4.3-8.6,5.3c-3.5,1-7.8,1.4-13.1,1.4H167.9z M179.5,84.6h3.6c4.3,0,7.5-1,9.5-2.9c2-1.9,3-4.7,3-8.4
	c0-3.6-1-6.4-3.1-8.2c-2.1-1.9-5-2.8-9-2.8h-4.1V84.6z M179.5,117.5h7.2c5.2,0,9.1-1,11.5-3.1c2.6-2.2,3.9-5,3.9-8.5
	c0-3.3-1.2-6.1-3.7-8.4c-2.4-2.2-6.8-3.3-13-3.3h-5.9V117.5z"/>
<g>
	<path class="st0" d="M241.7,59.9c0,2.3,0.8,4.2,2.3,5.7c1.6,1.5,3.4,2.3,5.4,2.3c2.2,0,4.1-0.8,5.6-2.3c1.5-1.5,2.3-3.4,2.3-5.6
		c0-2.2-0.7-4.1-2.3-5.6c-1.5-1.5-3.3-2.3-5.5-2.3c-2.2,0-4,0.8-5.6,2.3C242.5,55.9,241.7,57.7,241.7,59.9z"/>
</g>
<path class="st0" d="M271,51.7l-22.3,30.6l0,0l-0.6,0.7c-4.8,6.1-7.3,13.7-7.3,21.5v24h7.6V106h2.4v22.5h7.3v-10.3V88.3l26-36.6H271
	z"/>
<path class="st0" d="M242.9,74.4l-16.5-22.7h-12.1L241,88.4l1.7-2.2C245.4,82.8,245.5,77.9,242.9,74.4z"/>
<g>
	<path class="st0" d="M5.6,153.4L0,144.9h2.9l3.9,6.2l4-6.2h2.8L8,153.4v5.6H5.6V153.4z"/>
	<path class="st0" d="M17.9,152L17.9,152c0-4,3-7.3,7.3-7.3s7.3,3.3,7.3,7.2v0c0,3.9-3,7.2-7.3,7.2C20.9,159.2,17.9,155.9,17.9,152z
		 M30,152L30,152c0-2.8-2-5-4.8-5c-2.8,0-4.7,2.2-4.7,4.9v0c0,2.7,2,5,4.8,5C28.1,156.9,30,154.7,30,152z"/>
	<path class="st0" d="M39.3,153v-8.1h2.5v8c0,2.6,1.3,4,3.5,4c2.2,0,3.5-1.3,3.5-3.9v-8.1h2.5v7.9c0,4.2-2.4,6.3-6,6.3
		C41.7,159.2,39.3,157.1,39.3,153z"/>
	<path class="st0" d="M62.1,147.2h-4.4v-2.3h11.4v2.3h-4.4v11.7h-2.5V147.2z"/>
	<path class="st0" d="M75.7,144.9h2.5v5.8h6.7v-5.8h2.5v14h-2.5V153h-6.7v5.9h-2.5V144.9z"/>
	<path class="st0" d="M104.9,144.9h2.5v11.8h7.4v2.2h-9.8V144.9z"/>
	<path class="st0" d="M121.2,144.9h10.4v2.2h-7.9v3.6h7v2.2h-7v3.8h8v2.2h-10.5V144.9z"/>
	<path class="st0" d="M143.6,144.8h2.3l6.2,14.1h-2.6l-1.4-3.4h-6.6l-1.4,3.4h-2.5L143.6,144.8z M147.1,153.4l-2.4-5.6l-2.4,5.6
		H147.1z"/>
	<path class="st0" d="M158.4,144.9h5.2c4.4,0,7.4,3,7.4,7v0c0,3.9-3,7-7.4,7h-5.2V144.9z M160.9,147.2v9.5h2.8c2.9,0,4.9-2,4.9-4.7
		v0c0-2.7-1.9-4.8-4.9-4.8H160.9z"/>
	<path class="st0" d="M178.1,144.9h10.4v2.2h-7.9v3.6h7v2.2h-7v3.8h8v2.2h-10.5V144.9z"/>
	<path class="st0" d="M195.5,144.9h6.2c1.8,0,3.1,0.5,4,1.4c0.7,0.8,1.2,1.8,1.2,3v0c0,2.3-1.4,3.7-3.3,4.2l3.8,5.3h-2.9l-3.4-4.9
		h-3.1v4.9h-2.5V144.9z M201.5,151.9c1.8,0,2.9-0.9,2.9-2.3v0c0-1.5-1.1-2.3-2.9-2.3h-3.6v4.7H201.5z"/>
	<path class="st0" d="M213,156.9l1.5-1.8c1.3,1.2,2.7,1.8,4.4,1.8c1.5,0,2.5-0.7,2.5-1.8v0c0-1-0.6-1.5-3.2-2.1
		c-3-0.7-4.7-1.6-4.7-4.2v0c0-2.4,2-4.1,4.8-4.1c2,0,3.7,0.6,5.1,1.8l-1.3,1.9c-1.3-0.9-2.5-1.4-3.8-1.4c-1.4,0-2.3,0.7-2.3,1.7v0
		c0,1.1,0.6,1.6,3.3,2.2c3,0.7,4.5,1.8,4.5,4.1v0c0,2.6-2.1,4.2-5,4.2C216.7,159.1,214.7,158.4,213,156.9z"/>
	<path class="st0" d="M230.7,144.9h2.5v5.8h6.7v-5.8h2.5v14h-2.5V153h-6.7v5.9h-2.5V144.9z"/>
	<path class="st0" d="M250.1,144.9h2.5v14h-2.5V144.9z"/>
	<path class="st0" d="M260.3,144.9h5.5c3.3,0,5.3,1.9,5.3,4.7v0c0,3.1-2.5,4.8-5.6,4.8h-2.8v4.5h-2.5V144.9z M265.6,152.2
		c1.9,0,3-1,3-2.5v0c0-1.6-1.2-2.5-3-2.5h-2.9v5H265.6z"/>
</g>
<linearGradient id="SVGID_1_" gradientUnits="userSpaceOnUse" x1="17.5589" y1="52.2665" x2="256.7299" y2="52.2665">
	<stop  offset="0" style="stop-color:#FFFFFF;stop-opacity:0.1"/>
	<stop  offset="1" style="stop-color:#FFFFFF;stop-opacity:0.5"/>
</linearGradient>
<path class="st1" d="M256.2,67.2c-1.9,1.8-4.2,2.7-6.8,2.7c-2.6,0-4.8-0.9-6.8-2.8c-2-1.9-3-4.3-3-7.2c0-2.6,0.9-4.8,2.6-6.7
	C219,34.8,182.2,22.8,140.6,22.8c-59,0-108.7,24.1-123.1,56.8h5.7c4.6-8.6,11.9-16.4,21.4-23.2v-6.9h11.2
	c20.5-11,47.6-17.7,77.4-17.7c29.9,0,57.1,6.7,77.6,17.8h16.6l17.1,23.6h0c1.8,2.5,2.5,5.5,2.1,8.5l0.6-0.8l9.5-13
	C256.6,67.7,256.4,67.5,256.2,67.2z"/>
<linearGradient id="SVGID_2_" gradientUnits="userSpaceOnUse" x1="15.5209" y1="32.766" x2="282.132" y2="32.766">
	<stop  offset="0" style="stop-color:#FFFFFF;stop-opacity:0.1"/>
	<stop  offset="1" style="stop-color:#FFFFFF;stop-opacity:0.5"/>
</linearGradient>
<path class="st2" d="M152.2,0C91.2,0,38.8,24,15.5,58.4v7.1c22.2-31.8,71.1-54,128-54c51.6,0,96.7,18.2,121.2,45.4l5.3-7.3h12.1
	C256.4,20,207.9,0,152.2,0z"/>
</svg>
